<?xml version="1.0" standalone="no"?><!DOCTYPE svg PUBLIC "-//W3C//DTD SVG 1.1//EN" "http://www.w3.org/Graphics/SVG/1.1/DTD/svg11.dtd"><svg class="icon" width="32px" height="32.00px" viewBox="0 0 1024 1024" version="1.1" xmlns="http://www.w3.org/2000/svg"><path d="M154.72 493.808l51.184 0 0 336.944-51.184 0 0-336.944Z" fill="#1296db" /><path d="M854.336 452.656l51.184 0 0 293.232-51.184 0 0-293.232Z" fill="#1296db" /><path d="M512.192 462.432c70.528 0 127.952-57.312 127.952-127.808 0-70.512-57.424-127.808-127.952-127.808-70.528 0-127.952 57.312-127.952 127.808C384.24 405.12 441.664 462.432 512.192 462.432zM512.192 257.936c42.432 0 76.784 34.352 76.784 76.688s-34.336 76.688-76.784 76.688c-42.368 0-76.768-34.352-76.768-76.688C435.424 292.288 469.808 257.936 512.192 257.936z" fill="#1296db" /><path d="M1008.592 259.088l-35.776 10.192 0 0.112-153.584 44.32c0.032-84.544-32.416-163.936-91.632-223.472C669.776 32.048 593.248 0 512.192 0c-80.752 0-157.072 32.048-214.896 90.24-57.568 57.888-89.968 134.464-92 216.512L0.384 358.448l0 664.656 51.184-17.408 256.176-86.32 358.016 104.256L1024 919.312 1024 280.24l0-25.584L1008.592 259.088zM512.192 51.12c141.264 0 256.944 118.112 255.904 264.832 0 0 0 13.296-3.056 35.28-16.912 102.768-96.752 230.08-160.72 316.992-0.496 1.024-1.536 2.032-2.032 2.56-44.528 56.752-90.096 95.088-90.096 95.088s-45.536-37.84-90.064-94.592c-0.512-0.496-1.536-1.536-2.048-2.56-63.984-86.4-143.824-214.224-160.704-316.464-3.072-22-3.072-35.28-3.072-35.28C255.264 170.256 370.928 51.12 512.192 51.12zM665.712 972.464l-358.256-104.128L51.568 954.592 51.568 396.592l156.816-39.504c0.112 0.736 0.192 1.456 0.304 2.224 20.16 122.352 114.032 263.712 169.056 338.256 2 3.024 3.984 5.44 5.568 7.152 46.88 59.312 94.128 98.784 96.176 100.464l2.048 1.68 0 72.752 46.304 0 0-60.064 17.328-14.56c2.032-1.68 49.12-41.632 95.904-100.784 1.6-1.808 3.632-4.256 5.632-7.248 63.696-86.752 142.096-210.592 165.68-320.912l160.432-53.344 0 560.16 0 0L665.712 972.464z" fill="#1296db" /></svg>